<svg width="131" height="80" viewBox="0 0 131 80" fill="none" xmlns="http://www.w3.org/2000/svg">
<path d="M95.1834 45.301L91.8285 48.6625L88.3203 45.1542L91.8285 41.7927L95.1834 45.301Z" fill="#FF94A9"/>
<path d="M110.388 -0.000162125L97.375 7.51318L98.4255 9.33265L111.439 1.8193L110.388 -0.000162125Z" fill="#FF94A9"/>
<path d="M125.074 48.7891V68.5645C125.074 72.7264 122.246 73.8335 114.609 73.8335C106.972 73.8335 104.345 72.7264 104.345 68.5645V67.1172H98.4219V69.6917C98.4219 74.9807 102.284 79.9763 114.609 79.9763C126.935 79.9763 131.003 74.9807 131.003 69.6917V48.7891H125.08H125.074Z" fill="#064C4C"/>
<path d="M53.3037 48.7891V68.5646C53.3037 72.7265 50.4758 73.8336 42.8391 73.8336C35.2023 73.8336 32.6279 72.7465 32.5745 68.6847V61.1613H26.6519V68.6847C26.5985 72.7465 23.9507 73.8336 16.3873 73.8336C8.82393 73.8336 5.92264 72.7265 5.92264 68.5646V48.7891H0V69.6918C0 74.9808 4.06848 79.9697 16.394 79.9697C22.9902 79.9697 27.1654 78.5357 29.6199 76.3948C32.0743 78.5357 36.2428 79.9697 42.8457 79.9697C55.1646 79.9697 59.2397 74.9741 59.2397 69.6851V48.7825H53.3171L53.3037 48.7891Z" fill="#064C4C"/>
<path d="M78.7284 7.91089C66.4096 7.91089 62.5412 12.9064 62.5412 18.1955V20.7699H68.4638V19.3226C68.4638 15.1608 71.0917 14.0536 78.7284 14.0536C86.3651 14.0536 89.1931 15.1608 89.1931 19.3226V33.1154H0V39.0848H95.1224V18.1955C95.1224 12.9064 91.0539 7.91089 78.7284 7.91089Z" fill="#064C4C"/>
<path d="M130.99 28.907C130.99 27.433 130.99 25.9524 130.983 24.4784C130.983 19.4028 129.529 14.694 125.547 11.5726C121.546 8.43789 116.283 7.23735 111.094 8.28449C102.797 9.95857 97.8617 17.2685 98.482 25.6922C99.0423 33.309 105.025 38.618 113.109 39.0315C115.39 39.1449 117.557 39.0715 119.665 39.0649C120.652 39.0649 121.672 39.0515 122.673 39.0649V33.1089C122.226 33.1089 121.786 33.1089 121.352 33.1155C118.031 33.1889 114.869 33.1889 111.755 32.8821C109.74 32.682 107.773 31.5415 106.352 29.7607C104.765 27.7732 104.051 25.1787 104.338 22.4575C104.558 20.3965 105.599 18.4023 107.273 16.8216C108.96 15.2342 111.108 14.2538 113.315 14.0737C113.702 14.0404 114.089 14.027 114.462 14.027C117.27 14.027 119.798 14.9008 121.679 16.5415C123.793 18.3823 125.054 21.0969 125.074 24.1782C125.087 26.3992 125.074 28.6402 125.074 30.8079C125.074 31.5282 125.074 32.3752 125.074 33.0955V39.0649V44.0204H130.976C130.976 42.8265 130.963 40.5389 130.976 39.3116C131.01 35.8434 130.996 32.3152 130.99 28.907Z" fill="#064C4C"/>
<path d="M95.0937 79.9697C95.127 76.5282 95.1137 73.0266 95.107 69.6451C95.107 68.1778 95.107 66.7105 95.1003 65.2498C95.1003 60.2076 93.6464 55.5388 89.6646 52.4375C85.6628 49.3227 80.4005 48.1355 75.2115 49.176C66.9145 50.8367 61.9789 58.0933 62.5992 66.457C63.1595 74.0137 69.1421 79.4762 77.2257 79.883C79.5067 79.9964 81.6877 79.9764 83.7886 79.9697C84.7757 79.9697 85.7962 79.9564 86.7966 79.9697L86.7833 74.0004C86.3364 74.0004 85.8962 74.0004 85.4627 74.0071C82.1412 74.0804 78.9798 74.0804 75.8651 73.7736C73.8509 73.5735 71.8833 72.2529 70.4627 70.4855C68.8753 68.5113 68.1617 65.9368 68.4485 63.2356C68.6686 61.1947 69.709 59.2071 71.3831 57.6464C73.0705 56.0657 75.2182 55.0986 77.4258 54.9186C77.8126 54.8852 78.1995 54.8719 78.573 54.8719C81.3809 54.8719 83.9087 55.7389 85.7895 57.3663C87.9038 59.1938 89.1644 61.8883 89.1844 64.943C89.1977 67.144 89.1844 69.3717 89.1844 71.5193C89.1844 72.2329 89.1844 73.08 89.1844 73.787V79.7096V79.9564" fill="#064C4C"/>
</svg>
